<mxfile host="app.diagrams.net" modified="2022-04-16T19:50:42.626Z" agent="5.0 (Windows NT 10.0; Win64; x64) AppleWebKit/537.36 (KHTML, like Gecko) Chrome/100.0.4896.127 Safari/537.36" etag="fSv-3sfXKH958qq9bF_Y" version="17.4.5" type="github">
  <diagram id="ioh9ZHRe6-lWmO2bwPtg" name="Page-1">
    <mxGraphModel dx="1635" dy="866" grid="1" gridSize="10" guides="1" tooltips="1" connect="1" arrows="1" fold="1" page="1" pageScale="1" pageWidth="827" pageHeight="1169" math="0" shadow="0">
      <root>
        <mxCell id="0" />
        <mxCell id="1" parent="0" />
        <mxCell id="ipRfivGJs8x_oslvja03-3" style="edgeStyle=orthogonalEdgeStyle;rounded=0;orthogonalLoop=1;jettySize=auto;html=1;exitX=0.5;exitY=1;exitDx=0;exitDy=0;endArrow=none;endFill=0;strokeWidth=3;" edge="1" parent="1" source="ipRfivGJs8x_oslvja03-1">
          <mxGeometry relative="1" as="geometry">
            <mxPoint x="414" y="360" as="targetPoint" />
          </mxGeometry>
        </mxCell>
        <mxCell id="ipRfivGJs8x_oslvja03-1" value="&lt;font color=&quot;#ffffff&quot;&gt;Aplicativo&lt;/font&gt;" style="ellipse;whiteSpace=wrap;html=1;aspect=fixed;fillColor=#191621;" vertex="1" parent="1">
          <mxGeometry x="339" y="150" width="150" height="150" as="geometry" />
        </mxCell>
        <mxCell id="ipRfivGJs8x_oslvja03-4" style="edgeStyle=orthogonalEdgeStyle;rounded=0;orthogonalLoop=1;jettySize=auto;html=1;exitX=0.5;exitY=0;exitDx=0;exitDy=0;endArrow=none;endFill=0;strokeWidth=3;" edge="1" parent="1" source="ipRfivGJs8x_oslvja03-2">
          <mxGeometry relative="1" as="geometry">
            <mxPoint x="450" y="360" as="targetPoint" />
            <Array as="points">
              <mxPoint x="145" y="360" />
            </Array>
          </mxGeometry>
        </mxCell>
        <mxCell id="ipRfivGJs8x_oslvja03-2" value="Sistema administrativo" style="ellipse;whiteSpace=wrap;html=1;aspect=fixed;fillColor=#A9C4EB;" vertex="1" parent="1">
          <mxGeometry x="70" y="410" width="150" height="150" as="geometry" />
        </mxCell>
        <mxCell id="ipRfivGJs8x_oslvja03-11" style="edgeStyle=orthogonalEdgeStyle;rounded=0;orthogonalLoop=1;jettySize=auto;html=1;exitX=0.5;exitY=0;exitDx=0;exitDy=0;fontColor=#FFFFFF;endArrow=none;endFill=0;strokeWidth=3;" edge="1" parent="1" source="ipRfivGJs8x_oslvja03-5">
          <mxGeometry relative="1" as="geometry">
            <mxPoint x="490" y="360" as="targetPoint" />
            <Array as="points">
              <mxPoint x="665" y="360" />
            </Array>
          </mxGeometry>
        </mxCell>
        <mxCell id="ipRfivGJs8x_oslvja03-5" value="Sistema de &lt;br&gt;veiculo" style="ellipse;whiteSpace=wrap;html=1;aspect=fixed;fillColor=#A9C4EB;" vertex="1" parent="1">
          <mxGeometry x="590" y="410" width="150" height="150" as="geometry" />
        </mxCell>
        <mxCell id="ipRfivGJs8x_oslvja03-10" style="edgeStyle=orthogonalEdgeStyle;rounded=0;orthogonalLoop=1;jettySize=auto;html=1;exitX=0.5;exitY=0;exitDx=0;exitDy=0;fontColor=#FFFFFF;endArrow=none;endFill=0;strokeWidth=3;" edge="1" parent="1" source="ipRfivGJs8x_oslvja03-7">
          <mxGeometry relative="1" as="geometry">
            <mxPoint x="450" y="360" as="targetPoint" />
            <Array as="points">
              <mxPoint x="495" y="360" />
            </Array>
          </mxGeometry>
        </mxCell>
        <mxCell id="ipRfivGJs8x_oslvja03-7" value="Sistema de Atendimento" style="ellipse;whiteSpace=wrap;html=1;aspect=fixed;fillColor=#A9C4EB;" vertex="1" parent="1">
          <mxGeometry x="420" y="410" width="150" height="150" as="geometry" />
        </mxCell>
        <mxCell id="ipRfivGJs8x_oslvja03-9" style="edgeStyle=orthogonalEdgeStyle;rounded=0;orthogonalLoop=1;jettySize=auto;html=1;exitX=0.5;exitY=0;exitDx=0;exitDy=0;fontColor=#FFFFFF;endArrow=none;endFill=0;strokeWidth=3;startArrow=none;" edge="1" parent="1" source="ipRfivGJs8x_oslvja03-15">
          <mxGeometry relative="1" as="geometry">
            <mxPoint x="325" y="360" as="targetPoint" />
          </mxGeometry>
        </mxCell>
        <mxCell id="ipRfivGJs8x_oslvja03-8" value="Sistema de gerenciamento dos veiculos" style="ellipse;whiteSpace=wrap;html=1;aspect=fixed;fillColor=#A9C4EB;" vertex="1" parent="1">
          <mxGeometry x="250" y="410" width="150" height="150" as="geometry" />
        </mxCell>
        <mxCell id="ipRfivGJs8x_oslvja03-16" value="" style="edgeStyle=orthogonalEdgeStyle;rounded=0;orthogonalLoop=1;jettySize=auto;html=1;exitX=0.5;exitY=0;exitDx=0;exitDy=0;fontColor=#FFFFFF;endArrow=none;endFill=0;strokeWidth=3;" edge="1" parent="1" source="ipRfivGJs8x_oslvja03-8" target="ipRfivGJs8x_oslvja03-15">
          <mxGeometry relative="1" as="geometry">
            <mxPoint x="325" y="360" as="targetPoint" />
            <mxPoint x="325" y="410" as="sourcePoint" />
          </mxGeometry>
        </mxCell>
        <mxCell id="ipRfivGJs8x_oslvja03-12" value="" style="shape=mxgraph.signs.transportation.car_4;html=1;pointerEvents=1;fillColor=#666666;strokeColor=default;verticalLabelPosition=bottom;verticalAlign=top;align=center;fontColor=#FFFFFF;gradientColor=none;strokeWidth=1;" vertex="1" parent="1">
          <mxGeometry x="630" y="380" width="70" height="70" as="geometry" />
        </mxCell>
        <mxCell id="ipRfivGJs8x_oslvja03-13" value="" style="verticalLabelPosition=bottom;sketch=0;html=1;fillColor=#666666;strokeColor=default;verticalAlign=top;pointerEvents=1;align=center;shape=mxgraph.cisco_safe.people_places_things_icons.icon2;fontColor=#FFFFFF;gradientColor=none;strokeWidth=3;perimeterSpacing=2;" vertex="1" parent="1">
          <mxGeometry x="110" y="380" width="70" height="70" as="geometry" />
        </mxCell>
        <mxCell id="ipRfivGJs8x_oslvja03-14" value="" style="verticalLabelPosition=bottom;sketch=0;html=1;fillColor=#666666;strokeColor=default;verticalAlign=top;pointerEvents=1;align=center;shape=mxgraph.cisco_safe.people_places_things_icons.icon3;fontColor=#FFFFFF;gradientColor=none;strokeWidth=3;perimeterSpacing=2;" vertex="1" parent="1">
          <mxGeometry x="460" y="380" width="70" height="70" as="geometry" />
        </mxCell>
        <mxCell id="ipRfivGJs8x_oslvja03-15" value="" style="sketch=0;pointerEvents=1;shadow=0;dashed=0;html=1;strokeColor=default;labelPosition=center;verticalLabelPosition=bottom;verticalAlign=top;align=center;fillColor=#666666;shape=mxgraph.mscae.system_center.cloud_distribution_point;fontColor=#FFFFFF;gradientColor=none;strokeWidth=1;" vertex="1" parent="1">
          <mxGeometry x="290" y="380" width="70" height="70" as="geometry" />
        </mxCell>
        <mxCell id="ipRfivGJs8x_oslvja03-18" value="" style="sketch=0;pointerEvents=1;shadow=0;dashed=0;html=1;labelPosition=center;verticalLabelPosition=bottom;verticalAlign=top;outlineConnect=0;align=center;shape=mxgraph.office.devices.cell_phone_generic;fillColor=#A9C4EB;strokeColor=default;strokeWidth=3;gradientColor=#ffffff;" vertex="1" parent="1">
          <mxGeometry x="381.5" y="120" width="65" height="80" as="geometry" />
        </mxCell>
      </root>
    </mxGraphModel>
  </diagram>
</mxfile>
